<svg width="26" height="26" viewBox="0 0 26 26" fill="none" xmlns="http://www.w3.org/2000/svg">
<path d="M8.66675 6.22919C8.22258 6.22919 7.85425 5.86085 7.85425 5.41669V2.16669C7.85425 1.72252 8.22258 1.35419 8.66675 1.35419C9.11091 1.35419 9.47925 1.72252 9.47925 2.16669V5.41669C9.47925 5.86085 9.11091 6.22919 8.66675 6.22919Z" fill="#54545C"/>
<path d="M17.3333 6.22919C16.8891 6.22919 16.5208 5.86085 16.5208 5.41669V2.16669C16.5208 1.72252 16.8891 1.35419 17.3333 1.35419C17.7774 1.35419 18.1458 1.72252 18.1458 2.16669V5.41669C18.1458 5.86085 17.7774 6.22919 17.3333 6.22919Z" fill="#54545C"/>
<path d="M16.25 24.6459H9.75C3.66167 24.6459 2.4375 21.775 2.4375 17.1384V10.4542C2.4375 5.31919 4.17083 3.22835 8.62333 2.97919H17.3333C17.3442 2.97919 17.3658 2.97919 17.3767 2.97919C21.8292 3.22835 23.5625 5.31919 23.5625 10.4542V17.1384C23.5625 21.775 22.3383 24.6459 16.25 24.6459ZM8.66667 4.60419C5.63333 4.77752 4.0625 5.73085 4.0625 10.4542V17.1384C4.0625 21.2875 4.85333 23.0209 9.75 23.0209H16.25C21.1467 23.0209 21.9375 21.2875 21.9375 17.1384V10.4542C21.9375 5.74169 20.3775 4.77752 17.3117 4.60419H8.66667Z" fill="#54545C"/>
<path d="M22.4791 19.8792H3.52075C3.07659 19.8792 2.70825 19.5108 2.70825 19.0667C2.70825 18.6225 3.07659 18.2542 3.52075 18.2542H22.4791C22.9233 18.2542 23.2916 18.6225 23.2916 19.0667C23.2916 19.5108 22.9233 19.8792 22.4791 19.8792Z" fill="#54545C"/>
<path d="M13.0001 8.9375C11.6676 8.9375 10.5409 9.66333 10.5409 11.0717C10.5409 11.7433 10.8551 12.2525 11.3317 12.5775C10.6709 12.9675 10.2917 13.5958 10.2917 14.3325C10.2917 15.6758 11.3209 16.51 13.0001 16.51C14.6684 16.51 15.7084 15.6758 15.7084 14.3325C15.7084 13.5958 15.3292 12.9567 14.6576 12.5775C15.1451 12.2417 15.4484 11.7433 15.4484 11.0717C15.4484 9.66333 14.3326 8.9375 13.0001 8.9375ZM13.0001 12.0142C12.4367 12.0142 12.0251 11.6783 12.0251 11.1475C12.0251 10.6058 12.4367 10.2917 13.0001 10.2917C13.5634 10.2917 13.9751 10.6058 13.9751 11.1475C13.9751 11.6783 13.5634 12.0142 13.0001 12.0142ZM13.0001 15.1667C12.2851 15.1667 11.7651 14.8092 11.7651 14.1592C11.7651 13.5092 12.2851 13.1625 13.0001 13.1625C13.7151 13.1625 14.2351 13.52 14.2351 14.1592C14.2351 14.8092 13.7151 15.1667 13.0001 15.1667Z" fill="#54545C"/>
</svg>
