<svg width="32" height="32" viewBox="0 0 32 32" fill="none" xmlns="http://www.w3.org/2000/svg">
<circle cx="16" cy="16" r="16" fill="#F1F1F1"/>
<path d="M11.6933 21.0133C11.2867 21.0133 10.9067 20.8733 10.6333 20.6133C10.2867 20.2867 10.12 19.7933 10.18 19.26L10.4267 17.1C10.4733 16.6933 10.72 16.1533 11.0067 15.86L16.48 10.0667C17.8467 8.61999 19.2733 8.57999 20.72 9.94666C22.1667 11.3133 22.2067 12.74 20.84 14.1867L15.3667 19.98C15.0867 20.28 14.5667 20.56 14.16 20.6267L12.0133 20.9933C11.9 21 11.8 21.0133 11.6933 21.0133ZM18.62 9.93999C18.1067 9.93999 17.66 10.26 17.2067 10.74L11.7333 16.54C11.6 16.68 11.4467 17.0133 11.42 17.2067L11.1733 19.3667C11.1467 19.5867 11.2 19.7667 11.32 19.88C11.44 19.9933 11.62 20.0333 11.84 20L13.9867 19.6333C14.18 19.6 14.5 19.4267 14.6333 19.2867L20.1067 13.4933C20.9333 12.6133 21.2333 11.8 20.0267 10.6667C19.4933 10.1533 19.0333 9.93999 18.62 9.93999Z" fill="black"/>
<path d="M19.56 15.3C19.5466 15.3 19.5266 15.3 19.5133 15.3C17.4333 15.0933 15.76 13.5133 15.44 11.4466C15.4 11.1733 15.5866 10.92 15.86 10.8733C16.1333 10.8333 16.3866 11.02 16.4333 11.2933C16.6866 12.9066 17.9933 14.1466 19.62 14.3066C19.8933 14.3333 20.0933 14.58 20.0666 14.8533C20.0333 15.1066 19.8133 15.3 19.56 15.3Z" fill="black"/>
<path d="M22 23.1666H10C9.72667 23.1666 9.5 22.94 9.5 22.6666C9.5 22.3933 9.72667 22.1666 10 22.1666H22C22.2733 22.1666 22.5 22.3933 22.5 22.6666C22.5 22.94 22.2733 23.1666 22 23.1666Z" fill="black"/>
</svg>
