<svg width="15" height="16" viewBox="0 0 15 16" fill="none" xmlns="http://www.w3.org/2000/svg">
<path d="M6.8375 14.6562C6.5375 14.6562 6.24375 14.5813 5.96875 14.4313C5.41875 14.125 5.0875 13.5687 5.0875 12.9437V9.63125C5.0875 9.31875 4.88125 8.85 4.6875 8.6125L2.35 6.1375C1.95625 5.74375 1.65625 5.06875 1.65625 4.5625V3.125C1.65625 2.125 2.4125 1.34375 3.375 1.34375H11.625C12.575 1.34375 13.3438 2.1125 13.3438 3.0625V4.4375C13.3438 5.09375 12.95 5.8375 12.5812 6.20625L9.875 8.6C9.6125 8.81875 9.40625 9.3 9.40625 9.6875V12.375C9.40625 12.9312 9.05625 13.575 8.61875 13.8375L7.75625 14.3937C7.475 14.5687 7.15625 14.6562 6.8375 14.6562ZM3.375 2.28125C2.9375 2.28125 2.59375 2.65 2.59375 3.125V4.5625C2.59375 4.79375 2.78125 5.24375 3.01875 5.48125L5.4 7.9875C5.71875 8.38125 6.03125 9.0375 6.03125 9.625V12.9375C6.03125 13.3437 6.3125 13.5437 6.43125 13.6062C6.69375 13.75 7.0125 13.75 7.25625 13.6L8.125 13.0437C8.3 12.9375 8.475 12.6 8.475 12.375V9.6875C8.475 9.01875 8.8 8.28125 9.26875 7.8875L11.9438 5.51875C12.1563 5.30625 12.4125 4.8 12.4125 4.43125V3.0625C12.4125 2.63125 12.0625 2.28125 11.6313 2.28125H3.375Z" fill="#565656"/>
<path d="M3.75004 7.21876C3.66254 7.21876 3.58129 7.19376 3.50004 7.15001C3.28129 7.01251 3.21254 6.71876 3.35004 6.50001L6.43129 1.56251C6.56879 1.34376 6.85629 1.27501 7.07504 1.41251C7.29379 1.55001 7.36254 1.83751 7.22504 2.05626L4.14379 6.99376C4.05629 7.13751 3.90629 7.21876 3.75004 7.21876Z" fill="#565656"/>
</svg>
