<svg width="26" height="26" viewBox="0 0 26 26" fill="none" xmlns="http://www.w3.org/2000/svg">
<path d="M19.2726 24.6458H6.72758C3.75925 24.6458 1.35425 22.23 1.35425 19.2617V11.2342C1.35425 9.76083 2.26425 7.90833 3.43425 6.99833L9.27341 2.44833C11.0284 1.08333 13.8342 1.01833 15.6542 2.29666L22.3492 6.98749C23.6384 7.88666 24.6459 9.81499 24.6459 11.3858V19.2725C24.6459 22.23 22.2409 24.6458 19.2726 24.6458ZM10.2701 3.72666L4.43091 8.27666C3.66175 8.88333 2.97925 10.2592 2.97925 11.2342V19.2617C2.97925 21.3308 4.65841 23.0208 6.72758 23.0208H19.2726C21.3417 23.0208 23.0209 21.3417 23.0209 19.2725V11.3858C23.0209 10.3458 22.2734 8.90499 21.4176 8.31999L14.7226 3.62916C13.4876 2.76249 11.4509 2.80583 10.2701 3.72666Z" fill="#54545C"/>
<path d="M13 20.3125C12.5558 20.3125 12.1875 19.9442 12.1875 19.5V16.25C12.1875 15.8058 12.5558 15.4375 13 15.4375C13.4442 15.4375 13.8125 15.8058 13.8125 16.25V19.5C13.8125 19.9442 13.4442 20.3125 13 20.3125Z" fill="#54545C"/>
</svg>
