<svg width="26" height="26" viewBox="0 0 26 26" fill="none" xmlns="http://www.w3.org/2000/svg">
<path d="M16.2501 14.0292H8.66675C8.22258 14.0292 7.85425 13.6608 7.85425 13.2167C7.85425 12.7725 8.22258 12.4042 8.66675 12.4042H16.2501C16.6942 12.4042 17.0626 12.7725 17.0626 13.2167C17.0626 13.6608 16.6942 14.0292 16.2501 14.0292Z" fill="#54545C"/>
<path d="M13.4117 18.3625H8.66675C8.22258 18.3625 7.85425 17.9942 7.85425 17.55C7.85425 17.1058 8.22258 16.7375 8.66675 16.7375H13.4117C13.8559 16.7375 14.2242 17.1058 14.2242 17.55C14.2242 17.9942 13.8559 18.3625 13.4117 18.3625Z" fill="#54545C"/>
<path d="M15.1667 7.31249H10.8334C9.79341 7.31249 7.85425 7.31249 7.85425 4.33332C7.85425 1.35416 9.79341 1.35416 10.8334 1.35416H15.1667C16.2067 1.35416 18.1459 1.35416 18.1459 4.33332C18.1459 5.37332 18.1459 7.31249 15.1667 7.31249ZM10.8334 2.97916C9.76091 2.97916 9.47925 2.97916 9.47925 4.33332C9.47925 5.68749 9.76091 5.68749 10.8334 5.68749H15.1667C16.5209 5.68749 16.5209 5.40582 16.5209 4.33332C16.5209 2.97916 16.2392 2.97916 15.1667 2.97916H10.8334Z" fill="#54545C"/>
<path d="M16.25 24.6458H9.75C3.66167 24.6458 2.4375 21.8508 2.4375 17.3333V10.8333C2.4375 5.89333 4.225 3.78083 8.62333 3.55333C9.05667 3.53166 9.4575 3.8675 9.47917 4.3225C9.50083 4.7775 9.15417 5.14583 8.71 5.1675C5.63333 5.34083 4.0625 6.26166 4.0625 10.8333V17.3333C4.0625 21.3417 4.85333 23.0208 9.75 23.0208H16.25C21.1467 23.0208 21.9375 21.3417 21.9375 17.3333V10.8333C21.9375 6.26166 20.3667 5.34083 17.29 5.1675C16.8458 5.14583 16.4992 4.75583 16.5208 4.31166C16.5425 3.8675 16.9325 3.52083 17.3767 3.5425C21.775 3.78083 23.5625 5.89333 23.5625 10.8225V17.3225C23.5625 21.8508 22.3383 24.6458 16.25 24.6458Z" fill="#54545C"/>
</svg>
