<svg width="26" height="26" viewBox="0 0 26 26" fill="none" xmlns="http://www.w3.org/2000/svg">
<path d="M21.0383 12.7292H17.3333C16.8891 12.7292 16.5208 12.3608 16.5208 11.9167V4.34415C16.5208 3.54249 16.8349 2.79499 17.3983 2.23166C17.9616 1.66832 18.7091 1.35416 19.5108 1.35416H19.5216C20.8758 1.36499 22.1541 1.89582 23.1291 2.85999C24.1041 3.84582 24.6349 5.14582 24.6349 6.49999V9.12165C24.6458 11.2775 23.1941 12.7292 21.0383 12.7292ZM18.1458 11.1042H21.0383C22.2949 11.1042 23.0208 10.3783 23.0208 9.12165V6.49999C23.0208 5.56832 22.6524 4.67999 21.9916 4.00832C21.3308 3.35832 20.4424 2.98999 19.5216 2.97916C19.5216 2.97916 19.5216 2.97916 19.5108 2.97916C19.1533 2.97916 18.8066 3.11999 18.5466 3.37999C18.2866 3.63999 18.1458 3.97582 18.1458 4.34415V11.1042Z" fill="#54545C"/>
<path d="M9.75008 25.2742C9.24091 25.2742 8.76425 25.0792 8.40675 24.7108L6.60841 22.9017C6.51091 22.8042 6.35925 22.7933 6.25092 22.88L4.38758 24.2667C3.81342 24.7 3.05508 24.7758 2.40508 24.4508C1.75508 24.1258 1.35425 23.4758 1.35425 22.75V6.49999C1.35425 3.22832 3.22841 1.35416 6.50008 1.35416H19.5001C19.9442 1.35416 20.3126 1.72249 20.3126 2.16666C20.3126 2.61082 19.9442 2.97916 19.5001 2.97916C18.7526 2.97916 18.1459 3.58582 18.1459 4.33332V22.75C18.1459 23.4758 17.7451 24.1258 17.0951 24.4508C16.4451 24.7758 15.6867 24.7108 15.1126 24.2775L13.2601 22.8908C13.1517 22.8042 13.0001 22.8258 12.9134 22.9125L11.0934 24.7325C10.7359 25.0792 10.2592 25.2742 9.75008 25.2742ZM6.40258 21.2008C6.90091 21.2008 7.38841 21.385 7.75675 21.7642L9.55508 23.5733C9.62008 23.6383 9.70675 23.6492 9.75008 23.6492C9.79342 23.6492 9.88008 23.6383 9.94508 23.5733L11.7651 21.7533C12.4367 21.0817 13.4984 21.0167 14.2459 21.5908L16.0876 22.9667C16.2067 23.0533 16.3151 23.0208 16.3692 22.9883C16.4234 22.9558 16.5209 22.8908 16.5209 22.75V4.33332C16.5209 3.84582 16.6401 3.37999 16.8459 2.97916H6.50008C4.09508 2.97916 2.97925 4.09499 2.97925 6.49999V22.75C2.97925 22.9017 3.07675 22.9667 3.13091 22.9992C3.19591 23.0317 3.30425 23.0533 3.41258 22.9667L5.26508 21.58C5.60091 21.3308 6.00175 21.2008 6.40258 21.2008Z" fill="#54545C"/>
<path d="M13 14.9067H9.75C9.30583 14.9067 8.9375 14.5383 8.9375 14.0942C8.9375 13.65 9.30583 13.2817 9.75 13.2817H13C13.4442 13.2817 13.8125 13.65 13.8125 14.0942C13.8125 14.5383 13.4442 14.9067 13 14.9067Z" fill="#54545C"/>
<path d="M13 10.5733H9.75C9.30583 10.5733 8.9375 10.205 8.9375 9.76083C8.9375 9.31667 9.30583 8.94833 9.75 8.94833H13C13.4442 8.94833 13.8125 9.31667 13.8125 9.76083C13.8125 10.205 13.4442 10.5733 13 10.5733Z" fill="#54545C"/>
<path d="M6.46761 10.8442C5.87178 10.8442 5.38428 10.3567 5.38428 9.76085C5.38428 9.16502 5.87178 8.67752 6.46761 8.67752C7.06344 8.67752 7.55094 9.16502 7.55094 9.76085C7.55094 10.3567 7.06344 10.8442 6.46761 10.8442Z" fill="#54545C"/>
<path d="M6.46761 15.1775C5.87178 15.1775 5.38428 14.69 5.38428 14.0942C5.38428 13.4983 5.87178 13.0108 6.46761 13.0108C7.06344 13.0108 7.55094 13.4983 7.55094 14.0942C7.55094 14.69 7.06344 15.1775 6.46761 15.1775Z" fill="#54545C"/>
</svg>
