<svg width="26" height="26" viewBox="0 0 26 26" fill="none" xmlns="http://www.w3.org/2000/svg">
<path d="M16.51 24.1258H16.3691C11.5591 24.1258 9.24081 22.23 8.83998 17.9833C8.79664 17.5391 9.12164 17.1383 9.57664 17.095C10.01 17.0516 10.4216 17.3875 10.465 17.8316C10.7791 21.2333 12.3825 22.5008 16.38 22.5008H16.5208C20.93 22.5008 22.49 20.9408 22.49 16.5316V9.46831C22.49 5.05914 20.93 3.49915 16.5208 3.49915H16.38C12.3608 3.49915 10.7575 4.78831 10.465 8.25498C10.4108 8.69914 10.0316 9.03498 9.57664 8.99165C9.12164 8.95915 8.79664 8.55831 8.82914 8.11414C9.19748 3.80248 11.5266 1.87415 16.3691 1.87415H16.51C21.8291 1.87415 24.1041 4.14915 24.1041 9.46831V16.5316C24.1041 21.8508 21.8291 24.1258 16.51 24.1258Z" fill="#CC4A50"/>
<path d="M16.25 13.8125H3.92163C3.47746 13.8125 3.10913 13.4442 3.10913 13C3.10913 12.5558 3.47746 12.1875 3.92163 12.1875H16.25C16.6941 12.1875 17.0625 12.5558 17.0625 13C17.0625 13.4442 16.6941 13.8125 16.25 13.8125Z" fill="#CC4A50"/>
<path d="M6.3374 17.4417C6.13156 17.4417 5.92573 17.3658 5.76323 17.2033L2.13406 13.5742C1.8199 13.26 1.8199 12.74 2.13406 12.4258L5.76323 8.79666C6.0774 8.48249 6.5974 8.48249 6.91156 8.79666C7.22573 9.11083 7.22573 9.63083 6.91156 9.94499L3.85656 13L6.91156 16.055C7.22573 16.3692 7.22573 16.8892 6.91156 17.2033C6.7599 17.3658 6.54323 17.4417 6.3374 17.4417Z" fill="#CC4A50"/>
</svg>
