<svg width="24" height="24" viewBox="0 0 24 24" fill="none" xmlns="http://www.w3.org/2000/svg">
<path d="M21 5.75H3C2.59 5.75 2.25 5.41 2.25 5C2.25 4.59 2.59 4.25 3 4.25H21C21.41 4.25 21.75 4.59 21.75 5C21.75 5.41 21.41 5.75 21 5.75Z" fill="#1A1A1A" stroke="#1A1A1A"/>
<path d="M21 12.75H3C2.59 12.75 2.25 12.41 2.25 12C2.25 11.59 2.59 11.25 3 11.25H21C21.41 11.25 21.75 11.59 21.75 12C21.75 12.41 21.41 12.75 21 12.75Z" fill="#1A1A1A" stroke="#1A1A1A"/>
<path d="M21 19.75H3C2.59 19.75 2.25 19.41 2.25 19C2.25 18.59 2.59 18.25 3 18.25H21C21.41 18.25 21.75 18.59 21.75 19C21.75 19.41 21.41 19.75 21 19.75Z" fill="#1A1A1A" stroke="#1A1A1A"/>
</svg>
