<svg width="22" height="22" viewBox="0 0 22 22" fill="none" xmlns="http://www.w3.org/2000/svg">
<path d="M6.65491 17.3159C6.58158 17.3159 6.50826 17.3067 6.43492 17.2975C5.88492 17.2242 5.41742 16.8759 5.18826 16.3809L4.03325 13.8417C2.19991 12.485 1.14575 10.4592 1.14575 8.2592C1.14575 4.34503 4.53742 1.15503 8.70825 1.15503C11.6508 1.15503 14.3366 2.76835 15.5558 5.27085C16.0233 6.19669 16.2708 7.20503 16.2708 8.2592C16.2708 12.0725 13.0533 15.1984 9.03825 15.3542L7.88326 16.7475C7.57159 17.105 7.12241 17.3159 6.65491 17.3159ZM8.70825 2.52085C5.29825 2.52085 2.52075 5.08752 2.52075 8.25002C2.52075 10.0559 3.41908 11.7242 4.97741 12.8242C5.07825 12.8975 5.16075 12.9892 5.20658 13.0992L6.43492 15.8033C6.48076 15.9042 6.57242 15.9317 6.61825 15.9317C6.66409 15.9409 6.75575 15.9317 6.81992 15.8583L8.17658 14.2267C8.30492 14.0709 8.49742 13.9792 8.70825 13.9792C12.1183 13.9792 14.8958 11.4125 14.8958 8.25002C14.8958 7.41585 14.7033 6.61833 14.3274 5.87583C13.3374 3.83166 11.1283 2.52085 8.70825 2.52085Z" fill="#54545C"/>
<path d="M15.345 20.8541C14.8683 20.8541 14.4283 20.6433 14.1167 20.2766L12.9617 18.8924C10.7433 18.8008 8.65332 17.7832 7.31499 16.1332C7.10416 15.8766 7.11333 15.51 7.32416 15.2625L8.17666 14.2358C8.30499 14.08 8.49749 13.9883 8.70833 13.9883C12.1183 13.9883 14.8958 11.4216 14.8958 8.25911C14.8958 7.42495 14.7033 6.62742 14.3275 5.88492C14.2083 5.64659 14.2358 5.36243 14.4008 5.1516C14.5658 4.94077 14.8408 4.84908 15.0975 4.90408C18.4892 5.68325 20.8542 8.51577 20.8542 11.7974C20.8542 13.9974 19.8 16.0233 17.9667 17.38L16.8117 19.9191C16.5733 20.4324 16.1058 20.7808 15.5467 20.8449C15.4825 20.8541 15.4092 20.8541 15.345 20.8541ZM8.76332 15.6749C9.90916 16.8391 11.5592 17.5174 13.2917 17.5174C13.4933 17.5174 13.6858 17.6091 13.8233 17.7649L15.18 19.3966C15.2442 19.4791 15.3267 19.4883 15.3817 19.4791C15.4183 19.4791 15.5192 19.4516 15.5742 19.3416L16.8025 16.6375C16.8575 16.5275 16.9308 16.4266 17.0317 16.3624C18.59 15.2624 19.4883 13.5941 19.4883 11.7883C19.4883 9.58826 18.1408 7.6358 16.0875 6.6733C16.2158 7.18663 16.28 7.7091 16.28 8.24994C16.28 12.0633 13.0625 15.1891 9.04749 15.3449L8.76332 15.6749Z" fill="#54545C"/>
<path d="M11.0001 8.9375H6.41675C6.04091 8.9375 5.72925 8.62583 5.72925 8.25C5.72925 7.87417 6.04091 7.5625 6.41675 7.5625H11.0001C11.3759 7.5625 11.6876 7.87417 11.6876 8.25C11.6876 8.62583 11.3759 8.9375 11.0001 8.9375Z" fill="#54545C"/>
</svg>
