<svg width="26" height="26" viewBox="0 0 26 26" fill="none" xmlns="http://www.w3.org/2000/svg">
<path d="M16.0226 21.0383C15.9034 21.0383 15.7734 21.0059 15.6651 20.9517C15.2642 20.7459 15.1017 20.2584 15.2967 19.8575L17.6151 15.2317C17.7559 14.9608 18.0376 14.7875 18.3409 14.7875C18.6442 14.7875 18.9259 14.9609 19.0667 15.2425L21.3851 19.8684C21.5909 20.2692 21.4284 20.7567 21.0167 20.9625C20.6159 21.1683 20.1284 21.0059 19.9226 20.5942L18.3409 17.42L16.7592 20.5942C16.6076 20.8759 16.3151 21.0383 16.0226 21.0383Z" fill="black"/>
<path d="M20.2369 20.2149H16.4236C15.9794 20.2149 15.6111 19.8466 15.6111 19.4024C15.6111 18.9582 15.9794 18.5899 16.4236 18.5899H20.2369C20.6811 18.5899 21.0494 18.9582 21.0494 19.4024C21.0494 19.8466 20.6919 20.2149 20.2369 20.2149Z" fill="black"/>
<path d="M18.3298 24.6459C14.8523 24.6459 12.0139 21.8184 12.0139 18.3301C12.0139 14.8417 14.8414 12.0143 18.3298 12.0143C21.8073 12.0143 24.6456 14.8417 24.6456 18.3301C24.6456 21.8184 21.8181 24.6459 18.3298 24.6459ZM18.3298 13.6501C15.7406 13.6501 13.6389 15.7517 13.6389 18.3409C13.6389 20.9301 15.7406 23.0318 18.3298 23.0318C20.9081 23.0318 23.0206 20.9301 23.0206 18.3409C23.0206 15.7517 20.9189 13.6501 18.3298 13.6501Z" fill="black"/>
<path d="M5.26508 13.7583C4.06258 13.7583 3.10925 13.4225 2.43758 12.7725C1.72258 12.0791 1.35425 11.0283 1.35425 9.67416V5.42751C1.35425 2.79501 2.80592 1.34332 5.43842 1.34332H9.68508C11.0393 1.34332 12.0793 1.70082 12.7834 2.42666C13.4659 3.13082 13.8018 4.1492 13.7693 5.4492V9.67416C13.8018 10.9958 13.4659 12.0358 12.7617 12.74C12.0576 13.4442 11.0176 13.7692 9.67424 13.7475H5.44925C5.37341 13.7583 5.31925 13.7583 5.26508 13.7583ZM5.43842 2.97917C3.69425 2.97917 2.97925 3.69419 2.97925 5.43835V9.685C2.97925 10.5842 3.17424 11.2341 3.56424 11.6133C3.94341 11.9816 4.55009 12.1442 5.40592 12.1333H9.67424C10.5842 12.155 11.2126 11.9708 11.5917 11.5917C11.9709 11.2125 12.1442 10.5733 12.1226 9.69585V5.42751C12.1442 4.56084 11.9709 3.94331 11.6026 3.56414C11.2234 3.17414 10.5734 2.97917 9.67424 2.97917H5.43842Z" fill="black"/>
<path d="M9.74989 7.14984H5.35156C4.9074 7.14984 4.53906 6.78151 4.53906 6.33734C4.53906 5.89317 4.9074 5.52484 5.35156 5.52484H9.74989C10.1941 5.52484 10.5624 5.89317 10.5624 6.33734C10.5624 6.78151 10.2049 7.14984 9.74989 7.14984Z" fill="black"/>
<path d="M7.56152 7.14993C7.11736 7.14993 6.74902 6.78159 6.74902 6.33743V5.60077C6.74902 5.1566 7.11736 4.78827 7.56152 4.78827C8.00569 4.78827 8.37402 5.1566 8.37402 5.60077V6.33743C8.37402 6.78159 8.00569 7.14993 7.56152 7.14993Z" fill="black"/>
<path d="M5.35156 10.5733C4.9074 10.5733 4.53906 10.205 4.53906 9.76081C4.53906 9.31664 4.9074 8.94831 5.35156 8.94831C6.7274 8.94831 7.84323 7.77833 7.84323 6.32666C7.84323 5.88249 8.21157 5.51416 8.65573 5.51416C9.0999 5.51416 9.46823 5.88249 9.46823 6.32666C9.46823 8.66666 7.62656 10.5733 5.35156 10.5733Z" fill="black"/>
<path d="M9.7608 10.5733C8.7533 10.5733 7.78914 10.0641 7.10664 9.16496C6.83581 8.80746 6.91165 8.29824 7.26915 8.02741C7.62665 7.75658 8.1358 7.83244 8.40664 8.18994C8.77497 8.68827 9.26247 8.95913 9.7608 8.95913C10.205 8.95913 10.5733 9.32746 10.5733 9.77163C10.5733 10.2158 10.205 10.5733 9.7608 10.5733Z" fill="black"/>
<path d="M9.75008 24.6458C5.12425 24.6458 1.35425 20.8758 1.35425 16.25C1.35425 15.8058 1.72258 15.4375 2.16675 15.4375C2.61091 15.4375 2.97925 15.8058 2.97925 16.25C2.97925 19.4567 5.21092 22.1434 8.21175 22.8475L7.91924 22.36C7.69174 21.97 7.81092 21.4717 8.20092 21.2442C8.58009 21.0167 9.08925 21.1358 9.31675 21.5258L10.4542 23.4217C10.6059 23.6708 10.6059 23.985 10.4651 24.2342C10.3134 24.4833 10.0426 24.6458 9.75008 24.6458Z" fill="black"/>
<path d="M23.8333 10.5625C23.3891 10.5625 23.0208 10.1942 23.0208 9.75002C23.0208 6.54335 20.7891 3.85666 17.7883 3.15249L18.0808 3.64C18.3083 4.03 18.1891 4.52837 17.7991 4.75587C17.42 4.98337 16.9108 4.86419 16.6833 4.47419L15.5458 2.57836C15.3941 2.32919 15.3941 2.01503 15.535 1.76586C15.6758 1.50586 15.9466 1.35419 16.2391 1.35419C20.865 1.35419 24.635 5.12419 24.635 9.75002C24.6458 10.1942 24.2775 10.5625 23.8333 10.5625Z" fill="black"/>
</svg>
