<svg width="22" height="22" viewBox="0 0 22 22" fill="none" xmlns="http://www.w3.org/2000/svg">
<path d="M4.76671 9.58832C4.59255 9.58832 4.40921 9.51499 4.28088 9.38666C4.08838 9.18499 4.02421 8.89166 4.13421 8.63499L5.83921 4.56499C5.87588 4.48249 5.89421 4.42749 5.92171 4.38166C7.27838 1.25582 9.01088 0.494989 12.0725 1.66832C12.2467 1.73249 12.3842 1.86999 12.4575 2.04416C12.5309 2.21832 12.5309 2.41082 12.4575 2.58499L9.77171 8.81832C9.66171 9.07499 9.41421 9.23082 9.13921 9.23082H6.52671C6.00421 9.23082 5.50921 9.33166 5.03255 9.53332C4.95005 9.56999 4.85838 9.58832 4.76671 9.58832ZM9.72588 2.52082C8.58921 2.52082 7.89255 3.26332 7.16838 4.94999C7.15921 4.97749 7.14088 5.00499 7.13171 5.03249L5.93088 7.88332C6.13255 7.86499 6.32505 7.85582 6.52671 7.85582H8.68088L10.89 2.72249C10.4592 2.58499 10.0742 2.52082 9.72588 2.52082Z" fill="#54545C"/>
<path d="M16.7659 9.41414C16.7017 9.41414 16.6284 9.40497 16.5642 9.38664C16.2159 9.28581 15.8492 9.23081 15.4642 9.23081H9.13921C8.91005 9.23081 8.69005 9.11164 8.56171 8.91914C8.44255 8.72664 8.41505 8.47914 8.50671 8.26831L11.165 2.09914C11.3025 1.76914 11.7059 1.53997 12.045 1.65914C12.155 1.69581 12.2559 1.74164 12.3659 1.78747L14.5292 2.69497C15.7942 3.21747 16.6375 3.76747 17.1875 4.42747C17.2975 4.55581 17.3892 4.69331 17.4809 4.83997C17.5817 4.99581 17.6734 5.17914 17.7375 5.37164C17.765 5.43581 17.8109 5.55497 17.8384 5.68331C18.095 6.55414 17.9667 7.61747 17.4167 8.99247C17.2975 9.24914 17.0409 9.41414 16.7659 9.41414ZM10.1842 7.85581H15.4734C15.7667 7.85581 16.0509 7.88331 16.335 7.92914C16.5917 7.13164 16.6467 6.51747 16.5 6.02247C16.4817 5.93997 16.4634 5.90331 16.4542 5.86664C16.3992 5.71997 16.3625 5.63747 16.3167 5.56414C16.2525 5.46331 16.2067 5.38081 16.1334 5.29831C15.7392 4.82164 15.0425 4.38164 13.9975 3.95081L12.1917 3.19914L10.1842 7.85581Z" fill="#54545C"/>
<path d="M14.575 20.8542H7.425C7.16833 20.8542 6.93 20.8358 6.69167 20.8083C3.47417 20.5975 1.64083 18.755 1.42083 15.5008C1.39333 15.2992 1.375 15.0517 1.375 14.8042V13.0167C1.375 10.9542 2.60333 9.09334 4.50083 8.26834C5.15167 7.99334 5.83 7.85583 6.53583 7.85583H15.4825C16.005 7.85583 16.5092 7.92917 16.9767 8.07584C19.1308 8.72667 20.6433 10.7617 20.6433 13.0167V14.8042C20.6433 15.0058 20.6342 15.1983 20.625 15.3817C20.4233 18.9658 18.3333 20.8542 14.575 20.8542ZM6.52667 9.23083C6.00417 9.23083 5.50917 9.33167 5.0325 9.53333C3.63917 10.1383 2.74083 11.5042 2.74083 13.0167V14.8042C2.74083 14.9967 2.75917 15.1892 2.7775 15.3725C2.95167 17.985 4.235 19.2683 6.81083 19.4425C7.04 19.47 7.22333 19.4883 7.41583 19.4883H14.5658C17.5908 19.4883 19.0758 18.1592 19.2225 15.3175C19.2317 15.1525 19.2408 14.9875 19.2408 14.8042V13.0167C19.2408 11.3575 18.1317 9.8725 16.555 9.38667C16.2067 9.28584 15.84 9.23083 15.455 9.23083H6.52667Z" fill="#54545C"/>
<path d="M2.05322 13.7042C1.67739 13.7042 1.36572 13.3925 1.36572 13.0167V10.3308C1.36572 7.44333 3.40989 4.95 6.23322 4.4C6.48072 4.35417 6.73739 4.44583 6.90239 4.63833C7.05822 4.83083 7.10406 5.10583 7.00322 5.335L5.39906 9.16667C5.32572 9.33167 5.19739 9.46 5.04156 9.53333C3.64822 10.1383 2.74989 11.5042 2.74989 13.0167C2.74072 13.3925 2.43822 13.7042 2.05322 13.7042ZM5.13322 6.25167C3.95989 6.91167 3.10739 8.06667 2.84156 9.41417C3.24489 9.00167 3.71239 8.65333 4.24406 8.39667L5.13322 6.25167Z" fill="#54545C"/>
<path d="M19.9466 13.7041C19.5707 13.7041 19.2591 13.3925 19.2591 13.0166C19.2591 11.3575 18.1499 9.87248 16.5732 9.38665C16.3899 9.33165 16.2341 9.20331 16.1516 9.02915C16.0691 8.85498 16.0599 8.65331 16.1332 8.47915C16.5641 7.40665 16.6741 6.62748 16.4999 6.02248C16.4816 5.93998 16.4632 5.90331 16.4541 5.86665C16.3349 5.60081 16.3991 5.28915 16.6099 5.08748C16.8207 4.88581 17.1416 4.83998 17.3982 4.97748C19.3966 6.02248 20.6341 8.07581 20.6341 10.3308V13.0166C20.6341 13.3925 20.3224 13.7041 19.9466 13.7041ZM17.6457 8.33248C18.2232 8.59831 18.7366 8.97415 19.1674 9.42331C18.9932 8.52498 18.5624 7.70915 17.9299 7.06748C17.8841 7.45248 17.7924 7.87415 17.6457 8.33248Z" fill="#54545C"/>
</svg>
